<?xml version="1.0" encoding="UTF-8" standalone="no"?>
<!-- Created with Inkscape (http://www.inkscape.org/) -->

<svg
   version="1.1"
   id="svg2"
   xml:space="preserve"
   width="377.28"
   height="129.28"
   viewBox="0 0 377.28 129.28"
   sodipodi:docname="framework_2v2.pdf"
   inkscape:version="1.1.2 (0a00cf5339, 2022-02-04)"
   xmlns:inkscape="http://www.inkscape.org/namespaces/inkscape"
   xmlns:sodipodi="http://sodipodi.sourceforge.net/DTD/sodipodi-0.dtd"
   xmlns="http://www.w3.org/2000/svg"
   xmlns:svg="http://www.w3.org/2000/svg"><defs
     id="defs6"><clipPath
       clipPathUnits="userSpaceOnUse"
       id="clipPath16"><path
         d="M 0,0 H 1179.1666 V 396.05597 H 0 Z"
         clip-rule="evenodd"
         id="path14" /></clipPath></defs><sodipodi:namedview
     id="namedview4"
     pagecolor="#ffffff"
     bordercolor="#666666"
     borderopacity="1.0"
     inkscape:pageshadow="2"
     inkscape:pageopacity="0.0"
     inkscape:pagecheckerboard="0"
     showgrid="false"
     inkscape:zoom="3.6286048"
     inkscape:cx="188.64"
     inkscape:cy="64.625391"
     inkscape:window-width="2560"
     inkscape:window-height="1376"
     inkscape:window-x="0"
     inkscape:window-y="27"
     inkscape:window-maximized="1"
     inkscape:current-layer="g8" /><g
     id="g8"
     inkscape:groupmode="layer"
     inkscape:label="framework_2v2"
     transform="matrix(0.31999998,0,0,0.31999998,0,4.5653333e-6)"><g
       id="g10"><g
         id="g12"
         clip-path="url(#clipPath16)"><g
           id="g18"
           transform="matrix(3.0004239,0,0,3.0004239,1.5002119,1.5002119)"><path
             d="m 141,42.5 h 20 -15 13.63"
             style="fill:none;stroke:#000000;stroke-width:1;stroke-linecap:butt;stroke-linejoin:miter;stroke-miterlimit:10;stroke-dasharray:none;stroke-opacity:1"
             id="path20" /><path
             d="m 164.88,42.5 -7,3.5 1.75,-3.5 -1.75,-3.5 z"
             style="fill:#000000;fill-opacity:1;fill-rule:nonzero;stroke:none"
             id="path22" /><path
             d="m 164.88,42.5 -7,3.5 1.75,-3.5 -1.75,-3.5 z"
             style="fill:none;stroke:#000000;stroke-width:1;stroke-linecap:butt;stroke-linejoin:miter;stroke-miterlimit:10;stroke-dasharray:none;stroke-opacity:1"
             id="path24" /><path
             d="m 86.25,25 h 49.5 c 0.69618,0 1.36586,0.133209 2.00906,0.39963 0.64321,0.26642 1.21094,0.645773 1.70324,1.138057 0.49227,0.492281 0.87162,1.060023 1.13804,1.703223 0.26644,0.643198 0.39964,1.312894 0.39966,2.00909 v 24.5 c -2e-5,0.69619 -0.13322,1.365883 -0.39966,2.009083 -0.26642,0.6432 -0.64577,1.210941 -1.13804,1.703224 -0.4923,0.492283 -1.06003,0.871632 -1.70324,1.138054 C 137.11586,59.866783 136.44618,59.999996 135.75,60 h -49.5 c -0.696205,-4e-6 -1.365906,-0.133217 -2.009102,-0.399639 C 83.597702,59.333939 83.029961,58.95459 82.537682,58.462307 82.045395,57.970024 81.666039,57.402283 81.39962,56.759083 81.133194,56.115883 80.999992,55.44619 81,54.75 v -24.5 c -8e-6,-0.696196 0.133194,-1.365892 0.39962,-2.00909 0.266419,-0.6432 0.645775,-1.210942 1.138062,-1.703223 0.492279,-0.492284 1.06002,-0.871637 1.703216,-1.138057 C 84.884094,25.133209 85.553795,25 86.25,25 Z"
             style="fill:#d5e8d4;fill-opacity:1;fill-rule:nonzero;stroke:none"
             id="path26" /><path
             d="m 86.25,25 h 49.5 c 0.69618,0 1.36586,0.133209 2.00906,0.39963 0.64321,0.26642 1.21094,0.645773 1.70324,1.138057 0.49227,0.492281 0.87162,1.060023 1.13804,1.703223 0.26644,0.643198 0.39964,1.312894 0.39966,2.00909 v 24.5 c -2e-5,0.69619 -0.13322,1.365883 -0.39966,2.009083 -0.26642,0.6432 -0.64577,1.210941 -1.13804,1.703224 -0.4923,0.492283 -1.06003,0.871632 -1.70324,1.138054 C 137.11586,59.866783 136.44618,59.999996 135.75,60 h -49.5 c -0.696205,-4e-6 -1.365906,-0.133217 -2.009102,-0.399639 C 83.597702,59.333939 83.029961,58.95459 82.537682,58.462307 82.045395,57.970024 81.666039,57.402283 81.39962,56.759083 81.133194,56.115883 80.999992,55.44619 81,54.75 v -24.5 c -8e-6,-0.696196 0.133194,-1.365892 0.39962,-2.00909 0.266419,-0.6432 0.645775,-1.210942 1.138062,-1.703223 0.492279,-0.492284 1.06002,-0.871637 1.703216,-1.138057 C 84.884094,25.133209 85.553795,25 86.25,25 Z"
             style="fill:none;stroke:#82b366;stroke-width:1;stroke-linecap:butt;stroke-linejoin:miter;stroke-miterlimit:10;stroke-dasharray:none;stroke-opacity:1"
             id="path28" /></g><g
           id="g30"
           transform="scale(3.0004239)"><text
             transform="translate(88.984375,40)"
             style="font-variant:normal;font-weight:normal;font-size:12px;font-family:ArialMT;-inkscape-font-specification:ArialMT;writing-mode:lr-tb;fill:#000000;fill-opacity:1;fill-rule:nonzero;stroke:none"
             id="text34"><tspan
               x="0 7.3300781 14.003906 18 26.666016 33.339844 37.335938"
               y="0"
               sodipodi:role="line"
               id="tspan32">Forward</tspan></text><text
             transform="translate(98.3125,55)"
             style="font-variant:normal;font-weight:normal;font-size:12px;font-family:ArialMT;-inkscape-font-specification:ArialMT;writing-mode:lr-tb;fill:#000000;fill-opacity:1;fill-rule:nonzero;stroke:none"
             id="text38"><tspan
               x="0 6.6738281 13.347656 19.347656"
               y="0"
               sodipodi:role="line"
               id="tspan36">pass</tspan></text></g><g
           id="g40"
           transform="matrix(3.0004239,0,0,3.0004239,1.5002119,1.5002119)"><path
             d="m 231,42.5 h 13.63"
             style="fill:none;stroke:#000000;stroke-width:1;stroke-linecap:butt;stroke-linejoin:miter;stroke-miterlimit:10;stroke-dasharray:none;stroke-opacity:1"
             id="path42" /><path
             d="m 249.88,42.5 -7,3.5 1.75,-3.5 -1.75,-3.5 z"
             style="fill:#000000;fill-opacity:1;fill-rule:nonzero;stroke:none"
             id="path44" /><path
             d="m 249.88,42.5 -7,3.5 1.75,-3.5 -1.75,-3.5 z"
             style="fill:none;stroke:#000000;stroke-width:1;stroke-linecap:butt;stroke-linejoin:miter;stroke-miterlimit:10;stroke-dasharray:none;stroke-opacity:1"
             id="path46" /><path
             d="m 171.25,25 h 54.5 c 0.69618,0 1.36586,0.133209 2.00906,0.39963 0.64319,0.26642 1.21094,0.645773 1.70324,1.138057 0.49227,0.492281 0.87162,1.060023 1.13804,1.703223 0.26644,0.643198 0.39964,1.312894 0.39966,2.00909 v 24.5 c -2e-5,0.69619 -0.13322,1.365883 -0.39966,2.009083 -0.26642,0.6432 -0.64577,1.210941 -1.13804,1.703224 -0.4923,0.492283 -1.06005,0.871632 -1.70324,1.138054 C 227.11586,59.866783 226.44618,59.999996 225.75,60 h -54.5 c -0.6962,-4e-6 -1.36591,-0.133217 -2.00911,-0.399639 -0.64319,-0.266422 -1.21092,-0.645771 -1.7032,-1.138054 -0.4923,-0.492283 -0.87164,-1.060024 -1.13806,-1.703224 C 166.13319,56.115883 165.99998,55.44619 166,54.75 v -24.5 c -2e-5,-0.696196 0.13319,-1.365892 0.39963,-2.00909 0.26642,-0.6432 0.64576,-1.210942 1.13806,-1.703223 0.49228,-0.492284 1.06001,-0.871637 1.7032,-1.138057 C 169.88409,25.133209 170.5538,25 171.25,25 Z"
             style="fill:#e1d5e7;fill-opacity:1;fill-rule:nonzero;stroke:none"
             id="path48" /><path
             d="m 171.25,25 h 54.5 c 0.69618,0 1.36586,0.133209 2.00906,0.39963 0.64319,0.26642 1.21094,0.645773 1.70324,1.138057 0.49227,0.492281 0.87162,1.060023 1.13804,1.703223 0.26644,0.643198 0.39964,1.312894 0.39966,2.00909 v 24.5 c -2e-5,0.69619 -0.13322,1.365883 -0.39966,2.009083 -0.26642,0.6432 -0.64577,1.210941 -1.13804,1.703224 -0.4923,0.492283 -1.06005,0.871632 -1.70324,1.138054 C 227.11586,59.866783 226.44618,59.999996 225.75,60 h -54.5 c -0.6962,-4e-6 -1.36591,-0.133217 -2.00911,-0.399639 -0.64319,-0.266422 -1.21092,-0.645771 -1.7032,-1.138054 -0.4923,-0.492283 -0.87164,-1.060024 -1.13806,-1.703224 C 166.13319,56.115883 165.99998,55.44619 166,54.75 v -24.5 c -2e-5,-0.696196 0.13319,-1.365892 0.39963,-2.00909 0.26642,-0.6432 0.64576,-1.210942 1.13806,-1.703223 0.49228,-0.492284 1.06001,-0.871637 1.7032,-1.138057 C 169.88409,25.133209 170.5538,25 171.25,25 Z"
             style="fill:none;stroke:#9673a6;stroke-width:1;stroke-linecap:butt;stroke-linejoin:miter;stroke-miterlimit:10;stroke-dasharray:none;stroke-opacity:1"
             id="path50" /></g><g
           id="g52"
           transform="scale(3.0004239)"><text
             transform="translate(172.15625,40)"
             style="font-variant:normal;font-weight:normal;font-size:12px;font-family:ArialMT;-inkscape-font-specification:ArialMT;writing-mode:lr-tb;fill:#000000;fill-opacity:1;fill-rule:nonzero;stroke:none"
             id="text56"><tspan
               x="0 8.0039062 14.677734 20.677734 26.677734 35.34375 42.017578 46.013672"
               y="0"
               sodipodi:role="line"
               id="tspan54">Backward</tspan></text><text
             transform="translate(185.8125,55)"
             style="font-variant:normal;font-weight:normal;font-size:12px;font-family:ArialMT;-inkscape-font-specification:ArialMT;writing-mode:lr-tb;fill:#000000;fill-opacity:1;fill-rule:nonzero;stroke:none"
             id="text60"><tspan
               x="0 6.6738281 13.347656 19.347656"
               y="0"
               sodipodi:role="line"
               id="tspan58">pass</tspan></text></g><g
           id="g62"
           transform="matrix(3.0004239,0,0,3.0004239,1.5002119,1.5002119)"><path
             d="M 316,17.5 V 15 H 198.5 v 3.629999"
             style="fill:none;stroke:#000000;stroke-width:1;stroke-linecap:butt;stroke-linejoin:miter;stroke-miterlimit:10;stroke-dasharray:none;stroke-opacity:1"
             id="path64" /><path
             d="m 198.5,23.879999 -3.5,-7 3.5,1.75 3.5,-1.75 z"
             style="fill:#000000;fill-opacity:1;fill-rule:nonzero;stroke:none"
             id="path66" /><path
             d="m 198.5,23.879999 -3.5,-7 3.5,1.75 3.5,-1.75 z"
             style="fill:none;stroke:#000000;stroke-width:1;stroke-linecap:butt;stroke-linejoin:miter;stroke-miterlimit:10;stroke-dasharray:none;stroke-opacity:1"
             id="path68" /><path
             d="M 111,92.5 V 72.5 80 66.370003"
             style="fill:none;stroke:#000000;stroke-width:1;stroke-linecap:butt;stroke-linejoin:miter;stroke-miterlimit:10;stroke-dasharray:none;stroke-opacity:1"
             id="path70" /><path
             d="m 111,61.119999 3.5,7.000004 -3.5,-1.75 -3.5,1.75 z"
             style="fill:#000000;fill-opacity:1;fill-rule:nonzero;stroke:none"
             id="path72" /><path
             d="m 111,61.119999 3.5,7.000004 -3.5,-1.75 -3.5,1.75 z"
             style="fill:none;stroke:#000000;stroke-width:1;stroke-linecap:butt;stroke-linejoin:miter;stroke-miterlimit:10;stroke-dasharray:none;stroke-opacity:1"
             id="path74" /><path
             d="m 83.75,92.5 h 54.5 c 0.69618,0 1.36587,0.133209 2.00908,0.399628 0.64319,0.266426 1.21092,0.645775 1.70322,1.138054 0.49227,0.492279 0.87162,1.06002 1.13806,1.703216 0.26642,0.643204 0.39962,1.312904 0.39964,2.009102 v 24.5 c -2e-5,0.69619 -0.13322,1.36588 -0.39964,2.00908 -0.26644,0.6432 -0.64579,1.21094 -1.13806,1.70322 -0.4923,0.49228 -1.06003,0.87163 -1.70322,1.13805 -0.64321,0.26643 -1.3129,0.39964 -2.00908,0.39965 h -54.5 c -0.696205,-1e-5 -1.365906,-0.13322 -2.009102,-0.39964 -0.643196,-0.26643 -1.210937,-0.64578 -1.703216,-1.13806 -0.492287,-0.49228 -0.871636,-1.06003 -1.138062,-1.70323 C 78.633202,123.61587 78.499992,122.94619 78.5,122.25 v -24.5 c -8e-6,-0.696198 0.133202,-1.365898 0.39962,-2.009094 0.266426,-0.643204 0.645775,-1.210945 1.138062,-1.703224 0.492279,-0.492279 1.06002,-0.871628 1.703216,-1.138054 C 82.384094,92.633209 83.053795,92.5 83.75,92.5 Z"
             style="fill:#dae8fc;fill-opacity:1;fill-rule:nonzero;stroke:none"
             id="path76" /><path
             d="m 83.75,92.5 h 54.5 c 0.69618,0 1.36587,0.133209 2.00908,0.399628 0.64319,0.266426 1.21092,0.645775 1.70322,1.138054 0.49227,0.492279 0.87162,1.06002 1.13806,1.703216 0.26642,0.643204 0.39962,1.312904 0.39964,2.009102 v 24.5 c -2e-5,0.69619 -0.13322,1.36588 -0.39964,2.00908 -0.26644,0.6432 -0.64579,1.21094 -1.13806,1.70322 -0.4923,0.49228 -1.06003,0.87163 -1.70322,1.13805 -0.64321,0.26643 -1.3129,0.39964 -2.00908,0.39965 h -54.5 c -0.696205,-1e-5 -1.365906,-0.13322 -2.009102,-0.39964 -0.643196,-0.26643 -1.210937,-0.64578 -1.703216,-1.13806 -0.492287,-0.49228 -0.871636,-1.06003 -1.138062,-1.70323 C 78.633202,123.61587 78.499992,122.94619 78.5,122.25 v -24.5 c -8e-6,-0.696198 0.133202,-1.365898 0.39962,-2.009094 0.266426,-0.643204 0.645775,-1.210945 1.138062,-1.703224 0.492279,-0.492279 1.06002,-0.871628 1.703216,-1.138054 C 82.384094,92.633209 83.053795,92.5 83.75,92.5 Z"
             style="fill:none;stroke:#6c8ebf;stroke-width:1;stroke-linecap:butt;stroke-linejoin:miter;stroke-miterlimit:10;stroke-dasharray:none;stroke-opacity:1"
             id="path78" /></g><g
           id="g80"
           transform="scale(3.0004239)"><text
             transform="translate(87.140625,107)"
             style="font-variant:normal;font-weight:normal;font-size:12px;font-family:ArialMT;-inkscape-font-specification:ArialMT;writing-mode:lr-tb;fill:#000000;fill-opacity:1;fill-rule:nonzero;stroke:none"
             id="text84"><tspan
               x="0 6 12.673828 22.669922 29.34375 32.009766 38.683594 42.017578"
               y="0"
               sodipodi:role="line"
               id="tspan82">Template</tspan></text><text
             transform="translate(93.140625,122)"
             style="font-variant:normal;font-weight:normal;font-size:12px;font-family:ArialMT;-inkscape-font-specification:ArialMT;writing-mode:lr-tb;fill:#000000;fill-opacity:1;fill-rule:nonzero;stroke:none"
             id="text88"><tspan
               x="0 6.6738281 13.347656 20.021484 26.695312 30.029297"
               y="0"
               sodipodi:role="line"
               id="tspan86">update</tspan></text></g><g
           id="g90"
           transform="matrix(3.0004239,0,0,3.0004239,1.5002119,1.5002119)"><path
             d="M 316,67.5 V 70 h -82.5 v 13.629997"
             style="fill:none;stroke:#000000;stroke-width:1;stroke-linecap:butt;stroke-linejoin:miter;stroke-miterlimit:10;stroke-dasharray:none;stroke-opacity:1"
             id="path92" /><path
             d="m 233.5,88.879997 -3.5,-7 3.5,1.75 3.5,-1.75 z"
             style="fill:#000000;fill-opacity:1;fill-rule:nonzero;stroke:none"
             id="path94" /><path
             d="m 233.5,88.879997 -3.5,-7 3.5,1.75 3.5,-1.75 z"
             style="fill:none;stroke:#000000;stroke-width:1;stroke-linecap:butt;stroke-linejoin:miter;stroke-miterlimit:10;stroke-dasharray:none;stroke-opacity:1"
             id="path96" /></g><g
           id="g98"
           transform="scale(3.0004239)"><text
             transform="translate(229.8125,12)"
             style="font-variant:normal;font-weight:normal;font-size:10px;font-family:ArialMT;-inkscape-font-specification:ArialMT;writing-mode:lr-tb;fill:#000000;fill-opacity:1;fill-rule:nonzero;stroke:none"
             id="text102"><tspan
               x="0 7.2216797 12.783203 15.561523 18.339844 23.339844 28.901367 34.462891 39.462891 41.68457 46.68457 49.462891 55.024414 60.585938"
               y="0"
               sodipodi:role="line"
               id="tspan100">Not consistent</tspan></text></g><g
           id="g104"
           transform="matrix(3.0004239,0,0,3.0004239,1.5002119,1.5002119)"><path
             d="M 191,110 H 149.86999"
             style="fill:none;stroke:#000000;stroke-width:1;stroke-linecap:butt;stroke-linejoin:miter;stroke-miterlimit:10;stroke-dasharray:none;stroke-opacity:1"
             id="path106" /><path
             d="m 144.61999,110 7,-3.5 -1.75,3.5 1.75,3.5 z"
             style="fill:#000000;fill-opacity:1;fill-rule:nonzero;stroke:none"
             id="path108" /><path
             d="m 144.61999,110 7,-3.5 -1.75,3.5 1.75,3.5 z"
             style="fill:none;stroke:#000000;stroke-width:1;stroke-linecap:butt;stroke-linejoin:miter;stroke-miterlimit:10;stroke-dasharray:none;stroke-opacity:1"
             id="path110" /><path
             d="m 276,110 h 20 -5 13.63"
             style="fill:none;stroke:#000000;stroke-width:1;stroke-linecap:butt;stroke-linejoin:miter;stroke-miterlimit:10;stroke-dasharray:none;stroke-opacity:1"
             id="path112" /><path
             d="m 309.88,110 -7,3.5 1.75,-3.5 -1.75,-3.5 z"
             style="fill:#000000;fill-opacity:1;fill-rule:nonzero;stroke:none"
             id="path114" /><path
             d="m 309.88,110 -7,3.5 1.75,-3.5 -1.75,-3.5 z"
             style="fill:none;stroke:#000000;stroke-width:1;stroke-linecap:butt;stroke-linejoin:miter;stroke-miterlimit:10;stroke-dasharray:none;stroke-opacity:1"
             id="path116" /><path
             d="M 233.5,90 276,110 233.5,130 191,110 Z"
             style="fill:#f5f5f5;fill-opacity:1;fill-rule:nonzero;stroke:none"
             id="path118" /><path
             d="M 233.5,90 276,110 233.5,130 191,110 Z"
             style="fill:none;stroke:#666666;stroke-width:1;stroke-linecap:butt;stroke-linejoin:miter;stroke-miterlimit:10;stroke-dasharray:none;stroke-opacity:1"
             id="path120" /></g><g
           id="g122"
           transform="scale(3.0004239)"><text
             transform="translate(206.14063,114)"
             style="font-variant:normal;font-weight:normal;font-size:12px;font-family:ArialMT;-inkscape-font-specification:ArialMT;writing-mode:lr-tb;fill:#333333;fill-opacity:1;fill-rule:nonzero;stroke:none"
             id="text126"><tspan
               x="0 8.6660156 15.339844 22.013672 25.347656 28.013672 34.6875 41.361328 48.035156"
               y="0"
               sodipodi:role="line"
               id="tspan124">Continue?</tspan></text></g><g
           id="g128"
           transform="matrix(3.0004239,0,0,3.0004239,1.5002119,1.5002119)"><path
             d="m 316.25,92.5 h 69.5 c 0.69617,0 1.36584,0.133209 2.00906,0.399628 0.64319,0.266426 1.21094,0.645775 1.70322,1.138054 0.49228,0.492279 0.87161,1.06002 1.13803,1.703216 0.26645,0.643204 0.39966,1.312904 0.39969,2.009102 v 24.5 c -3e-5,0.69619 -0.13324,1.36588 -0.39969,2.00908 -0.26642,0.6432 -0.64575,1.21094 -1.13803,1.70322 -0.49228,0.49228 -1.06003,0.87163 -1.70325,1.13805 -0.64319,0.26643 -1.31286,0.39964 -2.00903,0.39965 h -69.5 c -0.6962,-1e-5 -1.36591,-0.13322 -2.00912,-0.39964 -0.64319,-0.26643 -1.21091,-0.64578 -1.70319,-1.13806 -0.49228,-0.49228 -0.87164,-1.06003 -1.13806,-1.70323 -0.26645,-0.6432 -0.39966,-1.31288 -0.39963,-2.00907 v -24.5 c -3e-5,-0.696198 0.13318,-1.365898 0.39963,-2.009094 0.26642,-0.643204 0.64578,-1.210945 1.13806,-1.703224 0.49228,-0.492279 1.06,-0.871628 1.70319,-1.138054 C 314.88409,92.633209 315.5538,92.5 316.25,92.5 Z"
             style="fill:#fff2cc;fill-opacity:1;fill-rule:nonzero;stroke:none"
             id="path130" /><path
             d="m 316.25,92.5 h 69.5 c 0.69617,0 1.36584,0.133209 2.00906,0.399628 0.64319,0.266426 1.21094,0.645775 1.70322,1.138054 0.49228,0.492279 0.87161,1.06002 1.13803,1.703216 0.26645,0.643204 0.39966,1.312904 0.39969,2.009102 v 24.5 c -3e-5,0.69619 -0.13324,1.36588 -0.39969,2.00908 -0.26642,0.6432 -0.64575,1.21094 -1.13803,1.70322 -0.49228,0.49228 -1.06003,0.87163 -1.70325,1.13805 -0.64319,0.26643 -1.31286,0.39964 -2.00903,0.39965 h -69.5 c -0.6962,-1e-5 -1.36591,-0.13322 -2.00912,-0.39964 -0.64319,-0.26643 -1.21091,-0.64578 -1.70319,-1.13806 -0.49228,-0.49228 -0.87164,-1.06003 -1.13806,-1.70323 -0.26645,-0.6432 -0.39966,-1.31288 -0.39963,-2.00907 v -24.5 c -3e-5,-0.696198 0.13318,-1.365898 0.39963,-2.009094 0.26642,-0.643204 0.64578,-1.210945 1.13806,-1.703224 0.49228,-0.492279 1.06,-0.871628 1.70319,-1.138054 C 314.88409,92.633209 315.5538,92.5 316.25,92.5 Z"
             style="fill:none;stroke:#d6b656;stroke-width:1;stroke-linecap:butt;stroke-linejoin:miter;stroke-miterlimit:10;stroke-dasharray:none;stroke-opacity:1"
             id="path132" /></g><g
           id="g134"
           transform="scale(3.0004239)"><text
             transform="translate(337.98438,107)"
             style="font-variant:normal;font-weight:normal;font-size:12px;font-family:ArialMT;-inkscape-font-specification:ArialMT;writing-mode:lr-tb;fill:#000000;fill-opacity:1;fill-rule:nonzero;stroke:none"
             id="text138"><tspan
               x="0 7.3300781 9.9960938 16.669922 23.34375"
               y="0"
               sodipodi:role="line"
               id="tspan136">Final</tspan></text><text
             transform="translate(324.98438,122)"
             style="font-variant:normal;font-weight:normal;font-size:12px;font-family:ArialMT;-inkscape-font-specification:ArialMT;writing-mode:lr-tb;fill:#000000;fill-opacity:1;fill-rule:nonzero;stroke:none"
             id="text142"><tspan
               x="0 6.6738281 10.669922 17.34375 24.017578 26.683594 32.683594 36.017578 38.683594 45.357422"
               y="0"
               sodipodi:role="line"
               id="tspan140">prediction</tspan></text><text
             transform="translate(173.17188,109)"
             style="font-variant:normal;font-weight:normal;font-size:10px;font-family:ArialMT;-inkscape-font-specification:ArialMT;writing-mode:lr-tb;fill:#000000;fill-opacity:1;fill-rule:nonzero;stroke:none"
             id="text146"><tspan
               x="0"
               y="0"
               id="tspan144">Y</tspan></text><text
             transform="translate(287.89063,109)"
             style="font-variant:normal;font-weight:normal;font-size:10px;font-family:ArialMT;-inkscape-font-specification:ArialMT;writing-mode:lr-tb;fill:#000000;fill-opacity:1;fill-rule:nonzero;stroke:none"
             id="text150"><tspan
               x="0"
               y="0"
               id="tspan148">N</tspan></text></g><g
           id="g152"
           transform="matrix(3.0004239,0,0,3.0004239,1.5002119,1.5002119)"><path
             d="m 316,17.5 65,25 -65,25 -65,-25 z"
             style="fill:#f5f5f5;fill-opacity:1;fill-rule:nonzero;stroke:none"
             id="path154" /><path
             d="m 316,17.5 65,25 -65,25 -65,-25 z"
             style="fill:none;stroke:#666666;stroke-width:1;stroke-linecap:butt;stroke-linejoin:miter;stroke-miterlimit:10;stroke-dasharray:none;stroke-opacity:1"
             id="path156" /></g><g
           id="g158"
           transform="scale(3.0004239)"><text
             transform="translate(265.96875,47)"
             style="font-variant:normal;font-weight:normal;font-size:12px;font-family:ArialMT;-inkscape-font-specification:ArialMT;writing-mode:lr-tb;fill:#333333;fill-opacity:1;fill-rule:nonzero;stroke:none"
             id="text162"><tspan
               x="0 8.6660156 15.339844 22.013672 28.013672 30.679688 36.679688 40.013672 46.6875 53.361328 59.361328 65.361328 68.695312 74.695312 81.369141 88.042969 94.042969"
               y="0"
               sodipodi:role="line"
               id="tspan160">Consistency check</tspan></text><text
             transform="translate(252.875,82)"
             style="font-variant:normal;font-weight:normal;font-size:10px;font-family:ArialMT;-inkscape-font-specification:ArialMT;writing-mode:lr-tb;fill:#000000;fill-opacity:1;fill-rule:nonzero;stroke:none"
             id="text166"><tspan
               x="0 7.2216797 12.783203 18.344727 23.344727 25.566406 30.566406 33.344727 38.90625 44.467773"
               y="0"
               sodipodi:role="line"
               id="tspan164">Consistent</tspan></text></g><g
           id="g168"
           transform="matrix(3.0004239,0,0,3.0004239,1.5002119,1.5002119)"><path
             d="M 61,42.5 H 74.629997"
             style="fill:none;stroke:#000000;stroke-width:1;stroke-linecap:butt;stroke-linejoin:miter;stroke-miterlimit:10;stroke-dasharray:none;stroke-opacity:1"
             id="path170" /><path
             d="m 79.879997,42.5 -7,3.5 1.75,-3.5 -1.75,-3.5 z"
             style="fill:#000000;fill-opacity:1;fill-rule:nonzero;stroke:none"
             id="path172" /><path
             d="m 79.879997,42.5 -7,3.5 1.75,-3.5 -1.75,-3.5 z"
             style="fill:none;stroke:#000000;stroke-width:1;stroke-linecap:butt;stroke-linejoin:miter;stroke-miterlimit:10;stroke-dasharray:none;stroke-opacity:1"
             id="path174" /><path
             d="m 6.25,25 h 49.5 c 0.696186,0 1.365879,0.133209 2.009079,0.39963 0.6432,0.26642 1.210941,0.645773 1.703228,1.138057 0.492279,0.492281 0.871632,1.060023 1.138054,1.703223 C 60.866783,28.884108 60.999996,29.553804 61,30.25 v 24.5 c -4e-6,0.69619 -0.133217,1.365883 -0.399639,2.009083 -0.266422,0.6432 -0.645775,1.210941 -1.138054,1.703224 -0.492287,0.492283 -1.060028,0.871632 -1.703228,1.138054 C 57.115879,59.866783 56.446186,59.999996 55.75,60 H 6.25 C 5.5538063,59.999996 4.88411,59.866783 4.2409115,59.600361 3.5977125,59.333939 3.0299718,58.95459 2.5376892,58.462307 2.0454061,57.970024 1.6660539,57.402283 1.3996323,56.759083 1.1332107,56.115883 0.99999994,55.44619 1,54.75 v -24.5 c -6e-8,-0.696196 0.1332107,-1.365892 0.3996323,-2.00909 0.2664216,-0.6432 0.6457738,-1.210942 1.1380569,-1.703223 C 3.0299718,26.045403 3.5977125,25.66605 4.2409115,25.39963 4.88411,25.133209 5.5538063,25 6.25,25 Z"
             style="fill:#fff2cc;fill-opacity:1;fill-rule:nonzero;stroke:none"
             id="path176" /><path
             d="m 6.25,25 h 49.5 c 0.696186,0 1.365879,0.133209 2.009079,0.39963 0.6432,0.26642 1.210941,0.645773 1.703228,1.138057 0.492279,0.492281 0.871632,1.060023 1.138054,1.703223 C 60.866783,28.884108 60.999996,29.553804 61,30.25 v 24.5 c -4e-6,0.69619 -0.133217,1.365883 -0.399639,2.009083 -0.266422,0.6432 -0.645775,1.210941 -1.138054,1.703224 -0.492287,0.492283 -1.060028,0.871632 -1.703228,1.138054 C 57.115879,59.866783 56.446186,59.999996 55.75,60 H 6.25 C 5.5538063,59.999996 4.88411,59.866783 4.2409115,59.600361 3.5977125,59.333939 3.0299718,58.95459 2.5376892,58.462307 2.0454061,57.970024 1.6660539,57.402283 1.3996323,56.759083 1.1332107,56.115883 0.99999994,55.44619 1,54.75 v -24.5 c -6e-8,-0.696196 0.1332107,-1.365892 0.3996323,-2.00909 0.2664216,-0.6432 0.6457738,-1.210942 1.1380569,-1.703223 C 3.0299718,26.045403 3.5977125,25.66605 4.2409115,25.39963 4.88411,25.133209 5.5538063,25 6.25,25 Z"
             style="fill:none;stroke:#d6b656;stroke-width:1;stroke-linecap:butt;stroke-linejoin:miter;stroke-miterlimit:10;stroke-dasharray:none;stroke-opacity:1"
             id="path178" /></g><g
           id="g180"
           transform="scale(3.0004239)"><text
             transform="translate(17.640625,47)"
             style="font-variant:normal;font-weight:normal;font-size:12px;font-family:ArialMT;-inkscape-font-specification:ArialMT;writing-mode:lr-tb;fill:#000000;fill-opacity:1;fill-rule:nonzero;stroke:none"
             id="text184"><tspan
               x="0 3.3339844 10.007812 16.681641 23.355469"
               y="0"
               sodipodi:role="line"
               id="tspan182">Input</tspan></text></g></g></g></g></svg>
